# xmcd
#
# Track frame offsets:
#       150
#       12713
#       24053
#       34636
#       48454
#       59868
#       70895
#       83583
#       97429
#       118404
#       132952
#       142507
#       158622
#       168512
#       182000
#       193884
#       205688
#       218285
#       229970
#
# Disc length: 3210 seconds
#
# Revision: 1
# Processed by: cddbd v1.4PL0 Copyright (c) Steve Scherf et al.
# Submitted via: WhereIsIt 3.24
#
DISCID=0b0c8813
DTITLE=Del Tonos, Los - Tres hombres enfermos
DYEAR=1900
DGENRE=
TTITLE0=(Soy un) hombre enfermo
TTITLE1=Nada que hacer
TTITLE2=Hard luck blues
TTITLE3=Culpable
TTITLE4=Ahora no digas que no
TTITLE5=Keep your business straight
TTITLE6=Me destrozas
TTITLE7=Siempre me estas llorando
TTITLE8=Right place, wrong time
TTITLE9=Porque
TTITLE10=Todavía no sabes mi nombre
TTITLE11=No, señor
TTITLE12=Mirar atrás
TTITLE13=Me gustas
TTITLE14=(Creo que) he vuelto a beber
TTITLE15=Que podriamos hacer
TTITLE16=Siempre pensé
TTITLE17=No quiero nada
TTITLE18=Walking to my baby
EXTD=
EXTT0=
EXTT1=
EXTT2=
EXTT3=
EXTT4=
EXTT5=
EXTT6=
EXTT7=
EXTT8=
EXTT9=
EXTT10=
EXTT11=
EXTT12=
EXTT13=
EXTT14=
EXTT15=
EXTT16=
EXTT17=
EXTT18=
PLAYORDER=
